<svg xmlns="http://www.w3.org/2000/svg" viewBox="0 0 900 420" width="100%" height="100%" style="background:#0d1117; font-family: -apple-system, BlinkMacSystemFont, Segoe UI, Roboto, Helvetica, Arial, sans-serif;">
<rect width="900" height="420" fill="#0d1117" rx="8"/>
<text x="60" y="25" fill="#f0f6fc" font-size="16" font-weight="bold">ARMANDINO ENGINE: 90-DAY EQUITY TRAJECTORY ($20 INITIAL)</text>
<line x1="60" y1="370.0" x2="870" y2="370.0" stroke="#21262d" stroke-dasharray="3,3"/>
<text x="50" y="374.0" fill="#8b949e" font-size="11" text-anchor="end">$0</text>
<line x1="60" y1="305.09836923835775" x2="870" y2="305.09836923835775" stroke="#21262d" stroke-dasharray="3,3"/>
<text x="50" y="309.09836923835775" fill="#8b949e" font-size="11" text-anchor="end">$5</text>
<line x1="60" y1="240.19673847671547" x2="870" y2="240.19673847671547" stroke="#21262d" stroke-dasharray="3,3"/>
<text x="50" y="244.19673847671547" fill="#8b949e" font-size="11" text-anchor="end">$10</text>
<line x1="60" y1="175.2951077150732" x2="870" y2="175.2951077150732" stroke="#21262d" stroke-dasharray="3,3"/>
<text x="50" y="179.2951077150732" fill="#8b949e" font-size="11" text-anchor="end">$15</text>
<line x1="60" y1="110.39347695343093" x2="870" y2="110.39347695343093" stroke="#21262d" stroke-dasharray="3,3"/>
<text x="50" y="114.39347695343093" fill="#8b949e" font-size="11" text-anchor="end">$20</text>
<line x1="60" y1="45.49184619178868" x2="870" y2="45.49184619178868" stroke="#21262d" stroke-dasharray="3,3"/>
<text x="50" y="49.49184619178868" fill="#8b949e" font-size="11" text-anchor="end">$25</text>
<line x1="60" y1="110.39347695343093" x2="870" y2="110.39347695343093" stroke="#30363d" stroke-width="1.5"/>
<polyline points="60.0,110.4 64.4,102.1 68.9,97.0 73.3,90.3 77.7,121.7 82.1,134.8 86.6,136.2 91.0,143.3 95.4,143.5 99.8,137.3 104.3,141.2 108.7,137.5 113.1,137.8 117.5,114.9 122.0,129.3 126.4,135.6 130.8,152.1 135.2,160.7 139.7,164.5 144.1,166.7 148.5,161.3 153.0,159.3 157.4,157.2 161.8,146.1 166.2,153.3 170.7,142.0 175.1,151.7 179.5,152.1 183.9,161.2 188.4,173.2 192.8,169.9 197.2,156.9 201.6,160.2 206.1,156.9 210.5,136.1 214.9,136.0 219.3,133.0 223.8,134.0 228.2,122.8 232.6,123.4 237.0,110.2 241.5,105.1 245.9,104.1 250.3,99.4 254.8,104.7 259.2,121.0 263.6,134.1 268.0,135.2 272.5,146.5 276.9,151.0 281.3,153.3 285.7,170.2 290.2,150.1 294.6,157.8 299.0,197.1 303.4,174.3 307.9,177.7 312.3,171.2 316.7,163.2 321.1,162.9 325.6,170.2 330.0,175.8 334.4,176.7 338.9,164.8 343.3,158.0 347.7,170.1 352.1,169.7 356.6,172.2 361.0,176.1 365.4,207.3 369.8,195.8 374.3,191.9 378.7,193.0 383.1,193.4 387.5,206.6 392.0,207.1 396.4,207.0 400.8,209.1 405.2,207.5 409.7,201.5 414.1,220.6 418.5,230.0 423.0,232.0 427.4,233.6 431.8,221.1 436.2,221.2 440.7,218.3 445.1,215.1 449.5,217.0 453.9,219.1 458.4,218.7 462.8,223.9 467.2,224.7 471.6,236.0 476.1,231.3 480.5,232.9 484.9,235.4 489.3,201.1 493.8,229.0 498.2,207.9 502.6,227.8 507.0,265.3 511.5,324.6 515.9,314.6 520.3,316.1 524.8,300.4 529.2,290.5 533.6,296.1 538.0,287.3 542.5,296.1 546.9,296.6 551.3,287.9 555.7,292.0 560.2,284.9 564.6,287.4 569.0,292.1 573.4,306.4 577.9,312.2 582.3,327.6 586.7,346.4 591.1,346.4 595.6,346.4 600.0,346.4 604.4,346.4 608.9,346.4 613.3,346.4 617.7,346.4 622.1,346.4 626.6,346.4 631.0,346.4 635.4,346.4 639.8,346.4 644.3,346.4 648.7,346.4 653.1,346.4 657.5,346.4 662.0,346.4 666.4,346.4 670.8,346.4 675.2,346.4 679.7,346.4 684.1,346.4 688.5,346.4 693.0,346.4 697.4,346.4 701.8,346.4 706.2,346.4 710.7,346.4 715.1,346.4 719.5,346.4 723.9,346.4 728.4,346.4 732.8,346.4 737.2,346.4 741.6,346.4 746.1,346.4 750.5,346.4 754.9,346.4 759.3,346.4 763.8,346.4 768.2,346.4 772.6,346.4 777.0,346.4 781.5,346.4 785.9,346.4 790.3,346.4 794.8,346.4 799.2,346.4 803.6,346.4 808.0,346.4 812.5,346.4 816.9,346.4 821.3,346.4 825.7,346.4 830.2,346.4 834.6,346.4 839.0,346.4 843.4,346.4 847.9,346.4 852.3,346.4 856.7,346.4 861.1,346.4 865.6,346.4 870.0,346.4" fill="none" stroke="#f85149" stroke-width="2.2" opacity="0.9"/>
<polyline points="60.0,110.4 64.4,102.1 68.9,97.0 73.3,90.3 77.7,96.6 82.1,79.5 86.6,91.0 91.0,110.9 95.4,111.2 99.8,91.5 104.3,92.9 108.7,88.0 113.1,97.3 117.5,70.0 122.0,78.8 126.4,114.5 130.8,146.7 135.2,171.3 139.7,180.7 144.1,185.5 148.5,198.3 153.0,197.7 157.4,190.2 161.8,197.0 166.2,206.0 170.7,195.2 175.1,212.5 179.5,214.5 183.9,213.4 188.4,212.4 192.8,213.8 197.2,218.4 201.6,218.4 206.1,215.3 210.5,209.7 214.9,209.6 219.3,209.2 223.8,218.5 228.2,215.3 232.6,215.7 237.0,201.4 241.5,193.2 245.9,192.8 250.3,191.0 254.8,194.2 259.2,198.6 263.6,198.2 268.0,204.9 272.5,217.0 276.9,219.6 281.3,220.6 285.7,226.3 290.2,204.7 294.6,212.0 299.0,225.6 303.4,232.4 307.9,237.9 312.3,236.6 316.7,234.0 321.1,233.7 325.6,235.7 330.0,231.6 334.4,232.0 338.9,229.6 343.3,223.1 347.7,237.6 352.1,237.7 356.6,238.2 361.0,241.6 365.4,272.4 369.8,274.3 374.3,268.7 378.7,269.8 383.1,269.7 387.5,279.0 392.0,279.4 396.4,279.1 400.8,280.4 405.2,285.4 409.7,294.1 414.1,315.3 418.5,323.5 423.0,315.5 427.4,317.4 431.8,314.8 436.2,317.2 440.7,313.9 445.1,310.6 449.5,313.2 453.9,313.1 458.4,312.9 462.8,316.9 467.2,314.5 471.6,328.0 476.1,329.5 480.5,330.6 484.9,330.2 489.3,324.1 493.8,311.4 498.2,290.3 502.6,298.1 507.0,308.4 511.5,344.7 515.9,344.7 520.3,344.7 524.8,344.7 529.2,344.7 533.6,344.7 538.0,344.7 542.5,344.7 546.9,344.7 551.3,344.7 555.7,344.7 560.2,344.7 564.6,344.7 569.0,344.7 573.4,344.7 577.9,344.7 582.3,344.7 586.7,344.7 591.1,344.7 595.6,344.7 600.0,344.7 604.4,344.7 608.9,344.7 613.3,344.7 617.7,344.7 622.1,344.7 626.6,344.7 631.0,344.7 635.4,344.7 639.8,344.7 644.3,344.7 648.7,344.7 653.1,344.7 657.5,344.7 662.0,344.7 666.4,344.7 670.8,344.7 675.2,344.7 679.7,344.7 684.1,344.7 688.5,344.7 693.0,344.7 697.4,344.7 701.8,344.7 706.2,344.7 710.7,344.7 715.1,344.7 719.5,344.7 723.9,344.7 728.4,344.7 732.8,344.7 737.2,344.7 741.6,344.7 746.1,344.7 750.5,344.7 754.9,344.7 759.3,344.7 763.8,344.7 768.2,344.7 772.6,344.7 777.0,344.7 781.5,344.7 785.9,344.7 790.3,344.7 794.8,344.7 799.2,344.7 803.6,344.7 808.0,344.7 812.5,344.7 816.9,344.7 821.3,344.7 825.7,344.7 830.2,344.7 834.6,344.7 839.0,344.7 843.4,344.7 847.9,344.7 852.3,344.7 856.7,344.7 861.1,344.7 865.6,344.7 870.0,344.7" fill="none" stroke="#58a6ff" stroke-width="2.2" opacity="0.9"/>
<circle cx="580" cy="22" r="5" fill="#f85149"/>
<text x="590" y="26" fill="#f0f6fc" font-size="12">Scenario A (No Hard SL): $1.82</text>
<circle cx="770" cy="22" r="5" fill="#58a6ff"/>
<text x="780" y="26" fill="#f0f6fc" font-size="12">Scenario B (Hard SL): $1.95</text>
<text x="60" y="405" fill="#8b949e" font-size="11">2026-06-30</text>
<text x="465" y="405" fill="#8b949e" font-size="11" text-anchor="middle">2026-08-17</text>
<text x="870" y="405" fill="#8b949e" font-size="11" text-anchor="end">2026-10-03</text>
</svg>